<svg xmlns="http://www.w3.org/2000/svg" viewBox="0 0 647.21 78.06"><defs><style>.cls-1,.cls-2{fill:#ffffff;}.cls-2{fill-rule:evenodd;}</style></defs><title>Asset 1</title><g id="Layer_2" data-name="Layer 2"><g id="Livello_1" data-name="Livello 1"><path class="cls-1" d="M69.81,22h0l0,0h0a2,2,0,0,0-1.68-.23A85,85,0,0,0,59,21.56h-.22c-1.56,0-3.18,0-4.79,0L40.9,21.31c-3.06-.09-6.42-.06-9.71.07-2.44,0-4.8.08-7.21.15s-8.51.09-12.09.1c-1.91,0-2.91,0-3,0a1.25,1.25,0,0,0-.95,1.09.6.6,0,0,0,.61.62c.34,0,2.5,0,6.44,0l4,0c1.07,0,1.57,0,1.8,0h0a85.17,85.17,0,0,1,8.8-.26h.22c1.86,0,3.78,0,5.72-.06h0A3.06,3.06,0,0,0,36.76,23h.06c.18,0,.37-.07.55-.09a5.1,5.1,0,0,0,1.47.11,6.06,6.06,0,0,1,1.51.09h.08v0a2.19,2.19,0,0,1,1.2,0h.08a3.16,3.16,0,0,0,.55.08,125.36,125.36,0,0,1,13,.43l2.44.26h0a39.42,39.42,0,0,1,6.57.11h.06c1.62.12,3.16.23,4.69.2v0l.09,0v0l.81-.64h0l0,0h0A1.11,1.11,0,0,0,69.81,22Z"/><path class="cls-1" d="M48.2,49.8l.06,0V49.6l-.05-5.09h0v0a25,25,0,0,1-.13-2.5,24.25,24.25,0,0,0-.18-3,25.85,25.85,0,0,0-.54-4.11L47.18,34l0-.09-.06-.06a1.56,1.56,0,0,1-.35-.76,2.48,2.48,0,0,0-.29-.75,9.93,9.93,0,0,0-1.35-1.76l0,0a1.38,1.38,0,0,0-.38-.33,1.73,1.73,0,0,1-.22-.15L44.38,30l-.07,0-.09-.07a3.63,3.63,0,0,0-1.3-.63h0a.71.71,0,0,0-.57-.22v-.13l-.24,0L41,28.71l-.17,0-.1.13c0,.06-.06.07-.3,0a1.94,1.94,0,0,0-.36-.1h-.13l-.06.06-.13-.08-.47-.14,0,.22a1.07,1.07,0,0,0-.54.12H37.25l.08.26h0a.74.74,0,0,0-.67.21l-.06.05a1.07,1.07,0,0,0-.49.22c-.08.05-.09.08-.16.08h-.12l-.08.09a2,2,0,0,1-.6.35l-.39.17.09.08a.54.54,0,0,0-.18.12h-.37v.28h0L34,30.75s-.15.17-.15.17a10.14,10.14,0,0,1-.83,1,10.29,10.29,0,0,0-1,1.2l-.08.13.05.13a.51.51,0,0,0-.27.37.88.88,0,0,0-.2.48.69.69,0,0,1,0,.13,1,1,0,0,0-.21.5.54.54,0,0,1-.07.23l-.19.23.08.06a1,1,0,0,0-.05.37s0,.09,0,.11l-.12.08,0,.18a3.59,3.59,0,0,1,0,1,4.74,4.74,0,0,0-.05,1.07.86.86,0,0,0-.08.62c0,.05,0,.13,0,.16l-.18.14.13.22a1,1,0,0,1-.05.67,1.36,1.36,0,0,0-.07.79l-.06.07a.34.34,0,0,0-.05.21.85.85,0,0,1,0,.27l-.13.28,0,.11.24.17a1.29,1.29,0,0,0,0,.44c0,.19,0,.26,0,.34l-.15.28.15.18v0a.63.63,0,0,0,.14.51.54.54,0,0,0,0,.09l-.28.07.19.39s0,.06,0,.1a.66.66,0,0,0,0,.53.89.89,0,0,0,0,.59l0,.13a.77.77,0,0,0-.07.83.75.75,0,0,0-.07.54l-.35.13.36.37a.42.42,0,0,0,0,.28.41.41,0,0,0,.15.13l-.11,0s0,0,0,0h0l.13.33v0a.77.77,0,0,0,.11.53.32.32,0,0,0-.06.16l-.14.14.14.2c.1.15.07.35,0,.66a1.31,1.31,0,0,0,0,.93l-.2.19.25.18,0,0a.56.56,0,0,0,0,.58v0a1,1,0,0,1,0,.49,1.82,1.82,0,0,0,.08,1l0,.35v0a.45.45,0,0,0,0,.34l-.11,0,.08.25a3,3,0,0,1,.08.87A2.32,2.32,0,0,0,31.5,57l.12.11.16,0c.41-.12.43-.53.45-.75,0-.05,0-.09,0-.13v-.07l0-.06a5.63,5.63,0,0,1,0-1.94c0-.18,0-.34,0-.5v-.08l0-.07a1.17,1.17,0,0,1-.05-.71,1.89,1.89,0,0,0,0-.77,34.52,34.52,0,0,0,0-3.84c0-.53,0-1,0-1.48h0a12.19,12.19,0,0,1,0-1.83,12.89,12.89,0,0,0,0-1.63,6.93,6.93,0,0,0,.11-1.72c0-.26,0-.52,0-.8v-.07l0,0a.45.45,0,0,0,.09-.47,2.34,2.34,0,0,0,.07-.61,2.16,2.16,0,0,1,0-.42l0-.07,0-.07a.81.81,0,0,1,0-.42,1.08,1.08,0,0,0,0-.63,4.25,4.25,0,0,0,.31-1.52l0-.18a.38.38,0,0,0-.12-.32v0a1.28,1.28,0,0,1,.28-.67,2.23,2.23,0,0,0,.4-1V34.1h0l.06-.06a.56.56,0,0,0,.26-.43.35.35,0,0,0,0-.12,2.23,2.23,0,0,0,.42-.56,1,1,0,0,1,.59-.55l.16,0,0-.15c0-.18.2-.28.44-.43a2,2,0,0,0,.54-.44.46.46,0,0,0,.4-.11,1.63,1.63,0,0,0,.59-.33c.26-.21.35-.26.52-.18l.18.08.12-.11h0a.45.45,0,0,0,.31-.19l.21-.06c.14-.05.18-.06.23,0a.34.34,0,0,0,.27,0v0l.21,0,.27,0a3.5,3.5,0,0,1,2.16.15l.23.12.14-.21.08.1a1,1,0,0,0,.87.43,1.49,1.49,0,0,0,.28.19l.11.07h0l.06.07a.83.83,0,0,0,.62.26,3.53,3.53,0,0,1,1,1.49v.29h.21v0a2.35,2.35,0,0,0,.48,1.13.74.74,0,0,0,0,.51l0,.1-.07.21.19.19,0,0a1,1,0,0,0,.14.49l0,.11,0,.1a.64.64,0,0,0,.25.88l.05,0c-.12.1-.12.2-.15.37l0,.22.09.14h0a.07.07,0,0,0,0,0,1.44,1.44,0,0,0,.06.16l-.1.09-.07.26.14.2.11.06a.77.77,0,0,0,.08.29l0,0,0,.13a2.22,2.22,0,0,0,.08,1.55l0,0a.64.64,0,0,0-.07.54s0,.13,0,.16l-.08.29a.52.52,0,0,0,.18.05.47.47,0,0,0,0,.09l-.06.34h.11c0,.11,0,.22,0,.32a.75.75,0,0,1-.07.37l0,0v0a1.34,1.34,0,0,0,.12.82l.05.13a.3.3,0,0,0-.09.24s0,0,0,.07l-.05.06.05.16a.29.29,0,0,0,.16.19l0,0a2,2,0,0,0,0,.21V45l-.18,0,.09.18a.46.46,0,0,0,0,.35l-.13.22s0,.13.13.18a.85.85,0,0,0,.34.84,1.12,1.12,0,0,1,.15.17h-.14l.1.36h0l-.08.08-.23.11.07.32,0,.07a.35.35,0,0,0,0,.34l0,0a.63.63,0,0,0-.2.39l0,.27.22,0,0,.16a.91.91,0,0,1-.1.26h0l0,0,.38.21a1.44,1.44,0,0,0-.11.28l0,.12h-.35l0,.37a.57.57,0,0,1,0,.19l0,.23v.37a.94.94,0,0,0,0,.21l0,0,0,.21a1.33,1.33,0,0,1,0,.31c0,.05,0,.12,0,.19l-.25.13.31.34v0a.77.77,0,0,0-.09.33H46l.38.46a.67.67,0,0,1,.08.22,0,0,0,0,1,0,0,.76.76,0,0,0-.19.5.55.55,0,0,1,0,.16h0l.1.13a.47.47,0,0,0-.15.17.54.54,0,0,0,0,.27H45.8l.31.3-.29.1.24.2v.75a.33.33,0,0,0,.18.31h0a.61.61,0,0,0,.45.06v.31l.36-.11a1.34,1.34,0,0,1,.68,0l.3.06,0-.3a21.58,21.58,0,0,0,.09-3.28,18.1,18.1,0,0,1,.08-3,.5.5,0,0,0-.05-.45Z"/><path class="cls-1" d="M26.52,49.8l.07,0V49.6l-.06-5.09h0v0c-.09-.77-.11-1.61-.13-2.5a24.12,24.12,0,0,0-.18-3,25.5,25.5,0,0,0-.54-4.11L25.5,34l0-.09-.06-.06a1.53,1.53,0,0,1-.35-.76,2.49,2.49,0,0,0-.29-.75,9.82,9.82,0,0,0-1.35-1.76l0,0A1.43,1.43,0,0,0,23,30.2a1.51,1.51,0,0,1-.21-.15L22.7,30l-.07,0-.09-.07a3.61,3.61,0,0,0-1.29-.63h0a.7.7,0,0,0-.56-.22v-.13l-.25,0-1.13-.17-.17,0-.1.13c0,.06-.05.07-.29,0a2,2,0,0,0-.36-.1h-.13l-.06.06-.13-.08-.47-.14,0,.22a1,1,0,0,0-.53.12H15.57l.08.26h0a.74.74,0,0,0-.66.21l-.07.05a1,1,0,0,0-.48.22c-.07.05-.1.08-.17.08h-.12l-.07.09a2.09,2.09,0,0,1-.61.35l-.38.17.08.08a.59.59,0,0,0-.18.12h-.37v.28h0l-.2-.09s-.15.17-.15.17a9.56,9.56,0,0,1-.82,1,9.33,9.33,0,0,0-1,1.2l-.09.13.06.13a.5.5,0,0,0-.27.37.86.86,0,0,0-.2.48s0,.1,0,.13a1,1,0,0,0-.21.5.43.43,0,0,1-.08.23l-.17.23.08.06a1,1,0,0,0-.06.37s0,.09,0,.11l-.12.08,0,.18a3.53,3.53,0,0,1,0,1,4.21,4.21,0,0,0-.05,1.07.89.89,0,0,0-.08.62.54.54,0,0,1,0,.16L9,39.1l.13.22c.1.17,0,.42-.05.67a1.33,1.33,0,0,0-.07.79l-.07.07a.36.36,0,0,0,0,.21.62.62,0,0,1,0,.27l-.13.28,0,.11.25.17a1.33,1.33,0,0,0,0,.44c0,.19,0,.26,0,.34L8.76,43l.15.18a.15.15,0,0,1,0,0,.67.67,0,0,0,.14.51l0,.09-.28.07.19.39s0,.06,0,.1a.7.7,0,0,0,0,.53,1,1,0,0,0,0,.59.86.86,0,0,1,0,.13.79.79,0,0,0-.06.83.72.72,0,0,0-.06.54l-.35.13.36.37a.43.43,0,0,0,0,.28.4.4,0,0,0,.15.13l-.11,0a.21.21,0,0,1,0,0H9l.13.33v0a.77.77,0,0,0,.11.53.29.29,0,0,0-.06.16L9,49.12l.14.2c.11.15.06.35,0,.66a1.27,1.27,0,0,0,0,.93L9,51.1l.25.18,0,0a.57.57,0,0,0,0,.58v0a1.11,1.11,0,0,1,0,.49,1.74,1.74,0,0,0,.08,1l0,.35v0a.43.43,0,0,0,0,.34L9.1,54l.08.25a2.94,2.94,0,0,1,.09.87A2.31,2.31,0,0,0,9.82,57l.12.11.16,0c.41-.12.43-.53.44-.75a.83.83,0,0,1,0-.13V56a5.44,5.44,0,0,1,0-1.94c0-.18,0-.34,0-.5v-.08l0-.07a1.15,1.15,0,0,1-.05-.71,1.76,1.76,0,0,0,0-.77,34.49,34.49,0,0,0,0-3.84c0-.53,0-1,0-1.48h0a12.92,12.92,0,0,1,0-1.83,13.07,13.07,0,0,0,0-1.63,7.1,7.1,0,0,0,.12-1.72c0-.26,0-.52,0-.8v-.07l0,0a.45.45,0,0,0,.09-.47,2.5,2.5,0,0,0,.07-.61,2.24,2.24,0,0,1,0-.42V39l0-.07a.9.9,0,0,1,0-.42,1.12,1.12,0,0,0,0-.63A4.26,4.26,0,0,0,11,36.33l0-.18a.37.37,0,0,0-.12-.32v0a1.28,1.28,0,0,1,.27-.67,2.1,2.1,0,0,0,.41-1V34.1h0l.06-.06a.56.56,0,0,0,.25-.43.57.57,0,0,0,0-.12,2.33,2.33,0,0,0,.43-.56c.16-.28.27-.46.59-.55l.16,0,0-.15c0-.18.19-.28.44-.43a1.92,1.92,0,0,0,.54-.44.45.45,0,0,0,.4-.11,1.67,1.67,0,0,0,.6-.33c.25-.21.34-.26.52-.18l.18.08.11-.11h0a.44.44,0,0,0,.31-.19,1,1,0,0,0,.21-.06c.15-.05.18-.06.23,0a.35.35,0,0,0,.27,0v0l.21,0,.27,0a3.5,3.5,0,0,1,2.16.15l.23.12.13-.21.08.1a1,1,0,0,0,.86.43,1.76,1.76,0,0,0,.29.19l.11.07h0l.06.07a.83.83,0,0,0,.62.26,3.57,3.57,0,0,1,1,1.49v.29h.21v0a2.32,2.32,0,0,0,.48,1.13.73.73,0,0,0,0,.51.6.6,0,0,1,0,.1l-.07.21.19.19,0,0a1,1,0,0,0,.14.49l0,.11,0,.1a.65.65,0,0,0,.25.88l.06,0c-.13.1-.13.2-.15.37l0,.22.09.14h0v0a.86.86,0,0,0,.07.16l-.1.09-.07.26.14.2.11.06a.58.58,0,0,0,.08.29.09.09,0,0,0,0,0l0,.13a2.18,2.18,0,0,0,.08,1.55l0,0a.68.68,0,0,0-.08.54,1,1,0,0,1,0,.16l-.08.29a.63.63,0,0,0,.18.05s0,.06,0,.09l-.07.34h.12a1.94,1.94,0,0,0,0,.32.62.62,0,0,1-.07.37l0,0,0,0a1.32,1.32,0,0,0,.12.82,1.24,1.24,0,0,1,.05.13.31.31,0,0,0-.09.24.12.12,0,0,0,0,.07l-.06.06.05.16a.29.29,0,0,0,.16.19l0,0a1.51,1.51,0,0,0,0,.21V45l-.18,0,.09.18a.44.44,0,0,0,0,.35l-.12.22a.28.28,0,0,0,.13.18.86.86,0,0,0,.34.84.76.76,0,0,1,.15.17h-.14l.1.36h0l-.08.08-.23.11.07.32,0,.07a.38.38,0,0,0,0,.34l0,0a.62.62,0,0,0-.2.39l0,.27.22,0a1.52,1.52,0,0,0,0,.16.94.94,0,0,1-.1.26h0l0,0,.38.21a1.22,1.22,0,0,0-.11.28.48.48,0,0,1,0,.12h-.34l0,.37a.74.74,0,0,1,0,.19,2.08,2.08,0,0,0,0,.23v.37a1.28,1.28,0,0,0,0,.21l0,0,0,.21a1.42,1.42,0,0,1,0,.31c0,.05,0,.12,0,.19l-.26.13.31.34v0a.88.88,0,0,0-.08.33h-.22l.38.46a.83.83,0,0,1,.08.22.05.05,0,0,1,0,0,.8.8,0,0,0-.19.5s0,.13,0,.16,0,0,0,0l.09.13a.52.52,0,0,0-.15.17.51.51,0,0,0,0,.27h-.37l.31.3-.29.1.24.2v.75a.33.33,0,0,0,.18.31h0a.62.62,0,0,0,.46.06v.31l.36-.11a1.35,1.35,0,0,1,.68,0l.3.06,0-.3a20.83,20.83,0,0,0,.08-3.28,17.41,17.41,0,0,1,.09-3,.5.5,0,0,0-.06-.45Z"/><path class="cls-1" d="M69.51,50.18l.06,0V50l-.06-5.09v0h0c-.09-.76-.11-1.61-.13-2.51a23.27,23.27,0,0,0-.18-3,25.37,25.37,0,0,0-.54-4.1l-.17-.93v-.09l-.06-.06a1.52,1.52,0,0,1-.35-.76,2.38,2.38,0,0,0-.28-.74,10.45,10.45,0,0,0-1.36-1.76l0,0a1.27,1.27,0,0,0-.38-.33,1.59,1.59,0,0,1-.21-.16l-.11-.09-.07,0-.08-.07a3.74,3.74,0,0,0-1.3-.64h0a.7.7,0,0,0-.57-.23V29.3l-.24,0-1.13-.17-.16,0-.1.14c0,.05-.05.06-.29,0a1.84,1.84,0,0,0-.36-.09l-.13,0-.07.07L61,29.07l-.47-.14,0,.22a1.2,1.2,0,0,0-.54.12H58.55l.08.26v0a.74.74,0,0,0-.67.22l-.06,0a.94.94,0,0,0-.48.22.28.28,0,0,1-.17.07h-.11l-.08.08a2,2,0,0,1-.6.35l-.38.17.09.08a.6.6,0,0,0-.18.13H55.6v.28h0l-.21-.09s-.15.18-.15.18a9.14,9.14,0,0,1-.83.94,11.07,11.07,0,0,0-1,1.22l-.09.12.06.13a.52.52,0,0,0-.27.35,1,1,0,0,0-.2.5.42.42,0,0,1,0,.12,1,1,0,0,0-.21.51.39.39,0,0,1-.08.22l-.17.23.08.06a1,1,0,0,0-.05.37.92.92,0,0,1,0,.12l-.11.07,0,.18a3.55,3.55,0,0,1,0,1,4.8,4.8,0,0,0,0,1.07.88.88,0,0,0-.08.62.9.9,0,0,1,0,.16l-.18.14.13.22a1,1,0,0,1-.05.68,1.41,1.41,0,0,0-.07.79.23.23,0,0,0-.06.07.34.34,0,0,0-.06.21.93.93,0,0,1,0,.27l-.13.27,0,.11.24.17a1.35,1.35,0,0,0,0,.45c0,.19,0,.26,0,.34l-.16.27.15.18v0a.63.63,0,0,0,.13.51l0,.09-.28.07.18.38,0,.1a.73.73,0,0,0,0,.53.91.91,0,0,0,0,.58A.92.92,0,0,1,52,46a.76.76,0,0,0-.06.83.74.74,0,0,0-.06.54l-.36.12.36.37a.37.37,0,0,0,0,.27.35.35,0,0,0,.15.13l-.11,0v0h0l.13.33v0a.77.77,0,0,0,.11.53.29.29,0,0,0-.06.16L52,49.5l.14.2c.1.16.06.35,0,.67a1.3,1.3,0,0,0,0,.93l-.2.19.25.18,0,0a.55.55,0,0,0,0,.58v0a1,1,0,0,1,0,.5,1.8,1.8,0,0,0,.08,1l0,.35v0a.42.42,0,0,0,0,.33l-.11.05.08.24a3.08,3.08,0,0,1,.08.88,2.29,2.29,0,0,0,.56,1.83l.12.12.16,0c.41-.13.43-.54.45-.76,0,0,0-.09,0-.12v-.12a5.41,5.41,0,0,1,0-1.95c0-.17,0-.34,0-.5v-.08l0-.07a1.19,1.19,0,0,1-.05-.71,1.85,1.85,0,0,0,0-.77,34.28,34.28,0,0,0,0-3.84c0-.52,0-1,0-1.48v0a12.43,12.43,0,0,1,0-1.83,13.55,13.55,0,0,0,0-1.63,7,7,0,0,0,.11-1.71c0-.26,0-.53,0-.82V41l0,0a.43.43,0,0,0,.09-.47,2.49,2.49,0,0,0,.08-.61,2.71,2.71,0,0,1,0-.43l0-.07,0-.07a.86.86,0,0,1,0-.42,1.13,1.13,0,0,0,0-.63A4.27,4.27,0,0,0,54,36.71l0-.18a.4.4,0,0,0-.12-.33v0a1.24,1.24,0,0,1,.27-.66,2.24,2.24,0,0,0,.41-1v-.07h0l.07-.06a.58.58,0,0,0,.25-.43.33.33,0,0,0,0-.11,2.3,2.3,0,0,0,.42-.56c.16-.27.28-.46.59-.55l.16,0,0-.16c0-.18.2-.28.45-.42A2.09,2.09,0,0,0,57,31.7a.46.46,0,0,0,.4-.12,1.53,1.53,0,0,0,.59-.33c.26-.22.35-.26.53-.18l.18.09.11-.12h0a.48.48,0,0,0,.31-.19l.2-.06c.14-.05.18-.06.23,0a.35.35,0,0,0,.26,0v0l.21,0,.27,0a3.48,3.48,0,0,1,2.15.15l.23.13.14-.2.09.09a1,1,0,0,0,.87.43,1.35,1.35,0,0,0,.28.19l.12.08h0l.05.07a.86.86,0,0,0,.62.26,3.57,3.57,0,0,1,1,1.49v.29h.21v0a2.3,2.3,0,0,0,.48,1.13.8.8,0,0,0,0,.52l0,.1-.07.21.18.19,0,0a1,1,0,0,0,.14.51l0,.1,0,.1a.64.64,0,0,0,.24.88l.07.05c-.13.1-.13.2-.15.37l0,.21.09.14h0v0a.64.64,0,0,0,.07.16l-.1.09-.07.26.14.2.12.06a.65.65,0,0,0,.07.29l0,0,0,.13a2.15,2.15,0,0,0,.08,1.55h0a.69.69,0,0,0-.08.54.56.56,0,0,1,0,.15l-.07.29a.51.51,0,0,0,.18.05.29.29,0,0,0,0,.09l-.06.34h.12a2.06,2.06,0,0,0,0,.31.76.76,0,0,1-.06.38l0,0v0a1.29,1.29,0,0,0,.12.83l0,.13a.3.3,0,0,0-.09.24.26.26,0,0,0,0,.07l-.06.06,0,.17a.31.31,0,0,0,.16.19h0a1.21,1.21,0,0,0,0,.22v.08l-.17.06.09.18a.43.43,0,0,0,0,.35l-.12.22a.3.3,0,0,0,.14.18.85.85,0,0,0,.33.83l.15.16h-.14l.1.37h0l-.08.08-.23.12.08.31,0,.08a.38.38,0,0,0,0,.34l0,0a.62.62,0,0,0-.2.4l0,.27.22,0-.05.17a.69.69,0,0,1-.09.26h0s0,0,0,0L68,50a1.81,1.81,0,0,0-.1.28l0,.12h-.34l0,.37a.68.68,0,0,1,0,.19,1.79,1.79,0,0,0,0,.23v.36a1.79,1.79,0,0,0,0,.21l0,0,0,.2a1.71,1.71,0,0,1,0,.31,1.42,1.42,0,0,0,0,.19l-.26.13.31.34v0a.85.85,0,0,0-.08.33H67.3l.38.47a.61.61,0,0,1,.08.22v0a.79.79,0,0,0-.2.5.68.68,0,0,1,0,.15h0l.1.13a.42.42,0,0,0-.14.18.5.5,0,0,0,0,.26H67.1l.31.31-.28.09.24.2v.76a.33.33,0,0,0,.18.3h0A.54.54,0,0,0,68,57v.32l.37-.11a1.36,1.36,0,0,1,.67-.05l.31.06,0-.3a21.36,21.36,0,0,0,.09-3.29,18.36,18.36,0,0,1,.08-3,.49.49,0,0,0-.06-.45Z"/><path class="cls-1" d="M73.94,73.95H4.11V4.12H73.94ZM0,0V78.06H78.07V0Z"/><path class="cls-2" d="M605.05,33.34c0-11,0-13,.14-15.36.14-2.53.72-3.76,2.68-4.13a10.94,10.94,0,0,1,2-.22c.58,0,1-.14,1-.65s-.51-.66-1.51-.66c-2.47,0-7,.22-8.77.22s-6.29-.22-10.14-.22c-1.08,0-1.59.15-1.59.66s.43.65,1.23.65a15.14,15.14,0,0,1,2.82.22c2.39.51,3,1.67,3.11,4.13s.14,4.35.14,15.36V46.08c0,6.67,0,12.39-.36,15.43-.29,2.1-.65,3.7-2.1,4a12.1,12.1,0,0,1-2.61.29c-.87,0-1.16.22-1.16.58s.51.73,1.45.73c2.9,0,7.46-.22,9.13-.22s6.37.22,10.43.22c.8,0,1.38-.22,1.38-.73s-.36-.58-.94-.58a31.28,31.28,0,0,1-3.55-.29c-1.81-.29-2.46-1.88-2.61-3.91-.22-3.12-.22-8.84-.22-15.51V39.49h.36l.8,1.08c1.52,2.1,15.78,18.84,19,21.66s5.07,4.35,9,4.71c1.52.14,2.82.14,5,.14h6.3c1.38,0,1.75-.22,1.75-.73s-.44-.58-1-.58a12.64,12.64,0,0,1-4.49-1.08c-3.91-1.52-7.16-4.78-10.36-7.83-2.82-2.68-17-18-19.63-21.37,2.46-2.6,13.4-13.47,15.65-15.64a23.21,23.21,0,0,1,7.82-5.43,14.13,14.13,0,0,1,4.2-.8c.72,0,1.09-.14,1.09-.65s-.5-.66-1.23-.66c-2.25,0-6.24.22-8.48.22-2,0-5.94-.22-7.46-.22-.8,0-1.16.15-1.16.66s.29.58.94.73,1,.65,1,1.44c0,1.23-1.59,3-3.62,5.44s-12.67,13.25-15.14,15.93h-.36Z"/><path class="cls-2" d="M548.46,35.35c-.22,0-.43-.14-.43-.51V33.32c0-11,0-13,.14-15.35.15-2.53.72-3.76,2.68-4.13a12.9,12.9,0,0,1,2.1-.22c.87,0,1.3-.14,1.3-.65s-.51-.65-1.52-.65c-2.83,0-7.38.22-9.12.22-2,0-6.51-.22-10.42-.22-1,0-1.52.14-1.52.65s.43.65,1.23.65a15,15,0,0,1,2.83.22c2.39.51,3,1.67,3.11,4.13s.14,4.34.14,15.35V46.06c0,6.66,0,12.38-.36,15.42-.29,2.1-.65,3.69-2.1,4a11.8,11.8,0,0,1-2.61.29c-.87,0-1.16.22-1.16.58s.51.72,1.45.72c2.9,0,7.46-.22,9.12-.22,2,0,6.59.22,11.29.22.87,0,1.45-.22,1.45-.72s-.36-.58-1.16-.58a30.36,30.36,0,0,1-3.69-.29c-2.17-.29-2.61-1.88-2.82-3.91-.36-3.11-.36-8.83-.36-15.49V39.69a.38.38,0,0,1,.43-.43h27.65a.42.42,0,0,1,.43.43v6.37c0,6.66,0,12.38-.36,15.42-.29,2.1-.65,3.69-2.1,4a11.77,11.77,0,0,1-2.61.29c-.87,0-1.16.22-1.16.58s.51.72,1.52.72c2.82,0,7.38-.22,9-.22,2,0,6.59.22,11.29.22.87,0,1.45-.22,1.45-.72s-.36-.58-1.16-.58a30.35,30.35,0,0,1-3.69-.29c-2.17-.29-2.61-1.88-2.83-3.91-.36-3.11-.36-8.83-.36-15.49V33.32c0-11,0-13,.14-15.35.14-2.53.72-3.76,2.68-4.13a12.88,12.88,0,0,1,2.1-.22c.87,0,1.3-.14,1.3-.65s-.51-.65-1.52-.65c-2.82,0-7.38.22-9.12.22-2,0-6.51-.22-10.42-.22-1,0-1.52.14-1.52.65s.43.65,1.23.65a14.89,14.89,0,0,1,2.82.22c2.39.51,3,1.67,3.11,4.13s.14,4.34.14,15.35v1.52c0,.36-.22.51-.43.51Z"/><path class="cls-2" d="M476.29,37a54.14,54.14,0,0,0-9-1.21,21.51,21.51,0,0,1-3.39-.33.72.72,0,0,1-.28-.12V34c0-9.32,0-14.34,1.53-15.65,1.24-1.09,3.8-1.28,9.48-1.28,3.86,0,6.7.07,8.52,2A9.13,9.13,0,0,1,485,23.49c.07.66.22,1.09.8,1.09s.58-.36.58-1.24A57.66,57.66,0,0,0,485.28,15c-.44-1.6-.8-2-4.59-2-5.24,0-9.7-.18-13-.11l-1.16,0v0c-2.21,0-4.71.21-7.76.21-1.44,0-6-.22-9.82-.22-1.08,0-1.59.14-1.59.65s.43.64,1.23.64a14.49,14.49,0,0,1,2.82.22c2.38.5,3,1.66,3.1,4.11s.14,4.33.14,15.3v12.7c0,6.64,0,12.34-.36,15.37-.28,2.09-.65,3.68-2.09,4a12,12,0,0,1-2.6.28c-.87,0-1.16.22-1.16.58s.5.72,1.45.72c1.44,0,3.32-.14,5-.14s3.32-.07,4.12-.07c1.08,0,3.25.07,5.41.22s4.19.22,5.05.22c13.28,0,19.27-8,19.27-15.73C488.75,43.49,482.2,39,476.29,37Zm-5.15,27.4a13,13,0,0,1-5.27-.87c-2.31-.93-2.52-2.16-2.52-6.93V39.52c0-.37.14-.51.43-.51,1.08,0,1.8,0,3.1.07,2.82.15,4.48.65,6,1.73,5.48,3.82,7,9.88,7,14.36C479.87,62.69,474.38,64.42,471.13,64.42Z"/><path class="cls-1" d="M555.77,65.89,537,66V65.4a1.06,1.06,0,0,1-.51.12c-2.77,0-3.57-1.78-6.07-7.77-4.64-11-16.23-40.57-18-44.55-.72-1.67-1.15-2.31-1.8-2.31s-1.16.8-2,2.89L490.43,59.3c-1.45,3.6-2.83,6.07-6.16,6.51a7,7,0,0,1-1.3.13c-.58,0-.86.16-.86.58,0,.58.43.72,1.38.72,3.75,0,6.79-.21,7.59-.21,2.26,0,5.36.21,7.68.21.81,0,1.23-.14,1.23-.72,0-.43-.21-.58-1.07-.58h-1.09c-2.24,0-2.9-.93-2.9-2.24A14.48,14.48,0,0,1,496,59.3l3.92-10.37c.14-.43.29-.59.65-.59h16.15a.74.74,0,0,1,.74.51l5.79,15.36a1.2,1.2,0,0,1-.66,1.68c-.73.06-1,.22-1,.64s.87.51,2.18.58c5.8.14,11.08.14,13.69.14,1.63,0,12.1,0,16.8,0,1,0,1.82-.29,1.82-.86A.46.46,0,0,0,555.77,65.89ZM515.35,44.74H502c-.3,0-.37-.24-.3-.53l6.66-17.82c.09-.29.21-.66.44-.66s.29.37.36.66l6.53,17.89C515.77,44.5,515.71,44.74,515.35,44.74Z"/><path class="cls-1" d="M167,33.26c0-10.89,0-12.9-.14-15.19s-.72-3.58-3.08-4.09a14.72,14.72,0,0,0-2.8-.22c-.79,0-1.22-.14-1.22-.64s.5-.65,1.58-.65c3.8,0,8.31.22,10.32.22,2.94,0,7.1-.22,10.39-.22,9,0,12.18,3,13.33,4.09a12.45,12.45,0,0,1,3.58,8.53c0,10.18-7.45,17.34-17.63,17.34a10.78,10.78,0,0,1-1.5-.07c-.36-.07-.86-.14-.86-.64s.5-.79,2-.79c4,0,9.6-4.52,9.6-11.83,0-2.37-.21-7.17-4.23-10.75a10.65,10.65,0,0,0-7.17-2.79,10.13,10.13,0,0,0-2.8.29c-.36.14-.57.57-.57,1.36V45.87c0,6.59,0,12.26.36,15.34.21,2,.65,3.58,2.79,3.87a30.16,30.16,0,0,0,3.66.29c.79,0,1.15.22,1.15.57s-.57.72-1.36.72c-4.73,0-9.25-.21-11.11-.21-1.65,0-6.16.21-9,.21-.93,0-1.43-.21-1.43-.72s.29-.57,1.15-.57a11.69,11.69,0,0,0,2.58-.29c1.43-.29,1.79-1.86,2.08-3.94.36-3,.36-8.67.36-15.27Z"/><path class="cls-1" d="M205.36,48c-.36,0-.5.14-.64.57l-3.87,10.25a13.91,13.91,0,0,0-1.08,4.37c0,1.29.65,2.22,2.87,2.22h1.08c.86,0,1.08.14,1.08.57s-.43.72-1.22.72c-2.29,0-5.38-.21-7.6-.21-.79,0-3.39.21-7.11.21-.93,0-1.36-.14-1.36-.72s.29-.49.86-.57c.93-.13,1.15-.22,1.73-.31,2.64-.43,3.81-2.7,5.24-6.28l18-45c.86-2.08,1.29-2.87,2-2.87s1.08.65,1.79,2.29c1.72,3.94,13.19,33.19,17.78,44.08,2.72,6.45,4.8,7.45,6.31,7.81a15.73,15.73,0,0,0,3,.29c.57,0,.93.07.93.57s-.64.72-3.3.72-7.81,0-13.55-.14c-1.29-.07-2.15-.07-2.15-.57s.29-.57,1-.65a1.17,1.17,0,0,0,.64-1.65l-5.73-15.19a.69.69,0,0,0-.72-.5ZM220,44.37c.36,0,.43-.21.36-.43l-6.45-17.7c-.07-.29-.14-.65-.36-.65s-.36.36-.43.65L206.5,43.87c-.07.29,0,.5.29.5Z"/><path class="cls-1" d="M247.73,33.26c0-10.89,0-12.9-.14-15.19s-.72-3.58-3.08-4.09a14.71,14.71,0,0,0-2.79-.22c-.79,0-1.22-.14-1.22-.64s.5-.65,1.58-.65c3.8,0,8.31.22,9.75.22,3.51,0,6.31-.22,8.75-.22,13,0,15.27,7,15.27,10.75,0,5.88-3.37,9.39-7.31,12.54,5.88,2,13,7.1,13,15.48,0,7.67-5.95,15.63-19.14,15.63-.86,0-2.94-.14-5-.22s-4.3-.21-5.38-.21c-.79,0-2.37,0-4.09.07s-3.51.14-4.95.14c-.93,0-1.43-.21-1.43-.72s.29-.57,1.15-.57a11.68,11.68,0,0,0,2.58-.29c1.43-.29,1.79-1.86,2.08-3.94.36-3,.36-8.67.36-15.27Zm8.6,1.22c0,.57.22.71.5.79a17.45,17.45,0,0,0,3.37.22c2.37,0,3.94-.29,5.16-1.36,1.86-1.51,2.94-4.09,2.94-7.6,0-4.8-2.8-11.11-9-11.11a11.58,11.58,0,0,0-2.36.14c-.5.14-.65.43-.65,1.22Zm9.46,5.73c-1.5-1.08-3.15-1.58-5.95-1.72-1.29-.07-2-.07-3.08-.07-.29,0-.43.14-.43.5v17c0,4.73.22,5.95,2.51,6.88a12.89,12.89,0,0,0,5.23.86c3.23,0,8.67-1.72,8.67-9.17C272.75,50,271.24,44,265.79,40.21Z"/><path class="cls-1" d="M335.15,36.41h.36c2.44-2.65,12.9-13.33,15-15.77s3.58-4.16,3.58-5.37c0-.79-.29-1.29-1-1.43s-.93-.29-.93-.72.36-.65,1.15-.65c1.5,0,5.45.22,7.38.22,2.22,0,6.16-.22,8.39-.22.72,0,1.22.14,1.22.65s-.36.64-1.08.64a14,14,0,0,0-4.16.79,22.91,22.91,0,0,0-7.74,5.38c-2.22,2.15-13,12.9-15.48,15.48,2.58,3.37,16.63,18.49,19.42,21.14,3.15,3,6.38,6.24,10.25,7.74a12.44,12.44,0,0,0,4.44,1.08c.5,0,.93.14.93.57s-.36.72-1.72.72h-6.24c-2.15,0-3.44,0-4.95-.14-3.87-.36-5.8-1.94-8.89-4.66S337.81,42.51,336.3,40.43l-.79-1.08h-.36v6.52c0,6.59,0,12.26.21,15.34.14,2,.79,3.58,2.58,3.87a30.2,30.2,0,0,0,3.51.29c.57,0,.93.22.93.57s-.57.72-1.36.72c-4,0-8.53-.21-10.32-.21s-6.16.21-9,.21c-.93,0-1.43-.21-1.43-.72s.29-.57,1.15-.57a11.69,11.69,0,0,0,2.58-.29c1.43-.29,1.79-1.86,2.08-3.94.36-3,.36-8.67.36-15.27V33.26c0-10.89,0-12.9-.14-15.19s-.72-3.58-3.08-4.09a14.72,14.72,0,0,0-2.8-.22c-.79,0-1.22-.14-1.22-.64s.5-.65,1.58-.65c3.8,0,8.31.22,10,.22s6.24-.22,8.67-.22c1,0,1.51.14,1.51.65s-.43.64-1,.64a10.66,10.66,0,0,0-2,.22c-1.93.36-2.51,1.58-2.65,4.09-.14,2.29-.14,4.3-.14,15.19Z"/><path class="cls-1" d="M380.67,59.85c-7-6.16-8.89-14.19-8.89-21.14a27,27,0,0,1,8.39-19.64c5.16-4.73,12-7.6,22.65-7.6a70.91,70.91,0,0,1,10.39.72c2.72.36,5,1,7.17,1.22.79.07,1.07.43,1.07.86s-.21,1.43-.36,3.94-.07,6.31-.21,7.74c-.07,1.07-.22,1.65-.86,1.65S419.3,27,419.3,26a10.23,10.23,0,0,0-2.8-6.59c-2.36-2.51-8-4.44-14.55-4.44-6.24,0-10.32,1.58-13.47,4.44-5.23,4.8-6.59,11.61-6.59,18.56,0,17.06,13,25.52,22.58,25.52,6.38,0,10.25-.72,13.12-4A12,12,0,0,0,420,54.76c.21-1.15.36-1.43.93-1.43s.65.5.65,1.08A68.11,68.11,0,0,1,420,63.94,2.53,2.53,0,0,1,418.16,66c-2.87,1.15-8.31,1.65-12.9,1.65C395.43,67.66,387.19,65.51,380.67,59.85Z"/><path class="cls-1" d="M157.06,65.37a30.14,30.14,0,0,1-3.66-.29c-2.15-.29-2.65-1.58-2.87-3.51-.29-3.08-.29-8.74-.29-15.7V33.26c0-10.89,0-12.9.14-15.19.14-2.51.72-3.73,2.65-4.09a12.1,12.1,0,0,1,2.15-.22c.72,0,1.15-.14,1.15-.72s-.57-.57-1.5-.57H102.28c-1.15,0-1.72.14-1.72.57s.43.72,1.15.72a10.19,10.19,0,0,1,2.58.29c1.58.36,2.29,1.58,2.44,4s.14,4.3.14,15.19V45.87c0,7,0,12.62-.36,15.62-.22,2.08-.65,3.3-2.08,3.58a11.7,11.7,0,0,1-2.58.29c-.86,0-1.15.22-1.15.57s.5.72,1.43.72c2.87,0,7.38-.21,9-.21,1.94,0,6.45.21,11.18.21.79,0,1.36-.21,1.36-.72s-.36-.57-1.15-.57a30.16,30.16,0,0,1-3.66-.29c-2.15-.29-2.65-1.58-2.87-3.51-.29-3.08-.29-8.74-.29-15.7V33.26c0-10.89,0-12.38.18-14.67.14-2.51.72-3.33,2.65-3.69.49-.08.88-.14,1.26-.17h17.44a8.31,8.31,0,0,1,1.53.24c1.58.36,2.29,1.18,2.44,3.61s.11,3.78.11,14.67V45.87c0,7,0,12.62-.36,15.62-.21,2.08-.64,3.3-2.08,3.58a11.68,11.68,0,0,1-2.58.29c-.86,0-1.15.22-1.15.57s.5.72,1.43.72c2.87,0,7.38-.21,9-.21,1.94,0,6.45.21,11.18.21.79,0,1.36-.21,1.36-.72S157.85,65.37,157.06,65.37Z"/><path class="cls-1" d="M288.74,33.31c0-10.88,0-12.88-.14-15.17s-.72-3.58-3.08-4.08a14.6,14.6,0,0,0-2.79-.21c-.79,0-1.22-.14-1.22-.64s.5-.64,1.57-.64c1.93,0,4,.07,5.8.07s3.51.14,4.51.14c2.29,0,16.53,0,17.89-.07a28.12,28.12,0,0,0,3.08-.43A6.8,6.8,0,0,1,315.5,12c.36,0,.43.29.43.64a45.54,45.54,0,0,0-.57,4.65c-.07.72-.22,3.86-.36,4.72-.07.36-.22.79-.72.79s-.64-.36-.64-1a7.66,7.66,0,0,0-.43-2.57c-.5-1.29-1.22-2.15-4.79-2.58-1.22-.14-8.73-.29-10.16-.29-.36,0-.5.21-.5.71v18.1c0,.5.07.79.5.79,1.57,0,9.8,0,11.45-.14s2.79-.36,3.43-1.07.79-.93,1.14-.93.5.14.5.57-.29,1.57-.57,5.23c-.07,1.43-.29,4.29-.29,4.79s0,1.36-.64,1.36a.57.57,0,0,1-.64-.64,18.71,18.71,0,0,0-.29-2.58c-.36-1.43-1.36-2.5-4-2.79-1.36-.14-8.44-.21-10.16-.21-.36,0-.43.29-.43.72v5.65c0,2.43-.07,9,0,11.09.14,4.94,1.29,6,8.58,6,1.86,0,4.86,0,6.73-.86s2.72-2.36,3.22-5.29c.14-.79.29-1.07.79-1.07s.57.57.57,1.29a56.11,56.11,0,0,1-.93,7.94c-.5,1.86-1.15,1.86-3.86,1.86-5.37,0-9.3-.14-12.38-.21s-5.29-.21-7.44-.21c-.79,0-2.36,0-4.08.07s-3.51.14-4.94.14c-.93,0-1.43-.21-1.43-.72s.29-.57,1.15-.57a11.86,11.86,0,0,0,2.58-.28c1.43-.29,1.79-1.86,2.07-3.94.36-3,.36-8.65.36-15.24Z"/></g></g></svg>